<svg version="1.1" id="Layer_1" xmlns="http://www.w3.org/2000/svg" xmlns:xlink="http://www.w3.org/1999/xlink" x="0px" y="0px"
	 width="100%" viewBox="0 0 512 512" enable-background="new 0 0 512 512" xml:space="preserve">
<path fill="#000000" opacity="1.000000" stroke="none" 
	d="
M333.000000,513.000000 
	C222.026962,513.000000 111.553917,513.000000 1.040437,513.000000 
	C1.040437,342.401947 1.040437,171.803864 1.040437,1.102891 
	C171.556381,1.102891 342.112854,1.102891 512.834656,1.102891 
	C512.834656,171.666534 512.834656,342.333252 512.834656,513.000000 
	C453.137177,513.000000 393.318573,513.000000 333.000000,513.000000 
M361.803192,279.560791 
	C361.888275,254.016937 361.981049,228.473114 362.013977,202.929184 
	C362.014801,202.291840 361.354858,201.653641 361.009369,200.158264 
	C360.812744,198.354767 360.844177,196.490799 360.384399,194.757095 
	C355.507965,176.368927 344.086609,163.121552 328.002197,153.464630 
	C319.564850,148.398956 310.331116,146.202606 299.817200,145.142776 
	C269.988220,145.093597 240.159210,145.035019 210.330215,145.034546 
	C209.290237,145.034531 208.250244,145.613663 206.356155,145.969070 
	C195.259705,146.763931 185.552933,152.170624 176.892853,157.906433 
	C159.573105,169.377747 149.240219,185.977890 149.047485,207.523529 
	C148.853836,229.170731 149.193848,250.823135 148.953125,272.469391 
	C148.699539,295.270721 157.265198,313.922333 174.853287,328.203644 
	C185.537369,336.878998 197.631607,342.212402 211.912949,342.072693 
	C239.221313,341.805573 266.535400,342.143585 293.844330,341.906616 
	C302.298035,341.833252 310.649628,340.695923 318.520935,336.824554 
	C332.060333,330.165466 342.839111,320.552124 351.006622,307.970428 
	C356.545135,299.438660 361.505859,290.642822 361.803192,279.560791 
z"/>
<path fill="#0A0405" opacity="1.000000" stroke="none" 
	d="
M300.717041,145.120697 
	C310.331116,146.202606 319.564850,148.398956 328.002197,153.464630 
	C344.086609,163.121552 355.507965,176.368927 360.384399,194.757095 
	C360.844177,196.490799 360.812744,198.354767 360.967224,201.053238 
	C360.956482,227.943069 360.987854,253.937912 361.019257,279.932770 
	C361.505859,290.642822 356.545135,299.438660 351.006622,307.970428 
	C342.839111,320.552124 332.060333,330.165466 318.520935,336.824554 
	C310.649628,340.695923 302.298035,341.833252 293.844330,341.906616 
	C266.535400,342.143585 239.221313,341.805573 211.912949,342.072693 
	C197.631607,342.212402 185.537369,336.878998 174.853287,328.203644 
	C157.265198,313.922333 148.699539,295.270721 148.953125,272.469391 
	C149.193848,250.823135 148.853836,229.170731 149.047485,207.523529 
	C149.240219,185.977890 159.573105,169.377747 176.892853,157.906433 
	C185.552933,152.170624 195.259705,146.763931 207.238312,145.944977 
	C237.397232,145.940247 266.674011,145.973068 295.950775,145.942276 
	C297.539825,145.940598 299.128296,145.406799 300.717041,145.120697 
M350.920776,288.475922 
	C350.901031,288.295502 350.881317,288.115082 351.194824,287.252075 
	C351.709991,274.126343 352.225159,261.000580 352.878967,247.204910 
	C352.832275,246.527557 352.785583,245.850189 352.955841,244.362473 
	C352.967651,231.890640 353.683685,219.364853 352.733612,206.966736 
	C352.140472,199.226379 350.374115,190.970779 346.790161,184.184311 
	C337.929993,167.407104 324.543549,155.212585 304.493530,154.723343 
	C273.080841,153.956818 241.640121,154.141418 210.213028,154.291031 
	C201.635666,154.331863 193.551239,156.973099 186.298187,163.122208 
	C177.284225,168.420822 171.970535,176.946625 166.240936,186.064804 
	C164.529114,192.421494 161.488113,198.748016 161.342987,205.140274 
	C160.807266,228.738525 160.831436,252.370453 161.538956,275.962891 
	C161.745041,282.834900 164.929840,289.617554 166.897430,297.108826 
	C169.527145,301.099396 172.156876,305.089966 174.933395,309.759705 
	C177.949982,312.744080 180.966583,315.728485 184.460205,319.240723 
	C191.575684,324.205322 198.882339,329.052704 207.887543,329.204590 
	C221.857986,329.440216 235.837204,329.155457 250.587967,329.427155 
	C266.720154,329.443146 282.855621,329.646118 298.982605,329.364746 
	C304.023590,329.276764 309.041809,327.881775 314.811951,327.073883 
	C319.104523,324.533905 323.397095,321.993927 328.270416,319.364746 
	C328.721313,319.008240 329.172211,318.651733 330.204865,318.062073 
	C333.197235,315.122406 336.189606,312.182739 339.159607,309.215637 
	C339.159607,309.215637 339.175323,309.191254 339.774567,309.032013 
	C340.240875,308.389740 340.707153,307.747498 341.668182,306.769806 
	C342.103485,306.105377 342.538818,305.440918 343.487457,304.357208 
	C345.894104,299.230408 348.300751,294.103607 350.920776,288.475922 
M271.499664,339.014374 
	C277.967987,339.014374 284.436310,339.014374 290.904602,339.014374 
	C290.902802,338.760681 290.900970,338.506958 290.899139,338.253265 
	C262.666626,338.253265 234.434128,338.253265 206.201614,338.253265 
	C206.200729,338.507507 206.199844,338.761749 206.198975,339.015991 
	C227.632584,339.015991 249.066208,339.015991 271.499664,339.014374 
M153.924896,227.500183 
	C153.924896,217.655380 153.924896,207.810577 153.924896,197.965775 
	C153.703903,197.968597 153.482925,197.971420 153.261932,197.974243 
	C153.261932,225.559174 153.261932,253.144104 153.261932,280.729034 
	C153.484375,280.729523 153.706802,280.729980 153.929245,280.730469 
	C153.929245,263.320374 153.929245,245.910263 153.924896,227.500183 
z"/>
<path fill="#9E9B9B" opacity="1.000000" stroke="none" 
	d="
M300.267120,145.131744 
	C299.128296,145.406799 297.539825,145.940598 295.950775,145.942276 
	C266.674011,145.973068 237.397232,145.940247 207.665359,145.921875 
	C208.250244,145.613663 209.290237,145.034531 210.330215,145.034546 
	C240.159210,145.035019 269.988220,145.093597 300.267120,145.131744 
z"/>
<path fill="#9E9B9B" opacity="1.000000" stroke="none" 
	d="
M361.411224,279.746765 
	C360.987854,253.937912 360.956482,227.943069 360.964111,201.482025 
	C361.354858,201.653641 362.014801,202.291840 362.013977,202.929184 
	C361.981049,228.473114 361.888275,254.016937 361.411224,279.746765 
z"/>
<path fill="#EF0416" opacity="1.000000" stroke="none" 
	d="
M166.741196,185.546005 
	C171.970535,176.946625 177.284225,168.420822 187.031311,163.069031 
	C191.309540,161.855408 194.855118,160.696457 198.399551,159.533997 
	C200.964264,158.692825 203.523575,157.126572 206.091873,157.112823 
	C237.529282,156.944687 268.967896,156.995895 300.406189,157.026093 
	C302.084930,157.027710 303.763336,157.347916 306.149048,157.592224 
	C304.283508,160.235565 303.000702,162.053253 301.539612,163.923889 
	C301.011017,163.958496 300.660645,163.940140 299.794922,163.751282 
	C291.171265,163.061920 283.062897,162.543091 274.549164,162.102051 
	C272.010986,162.451767 269.870667,163.001404 267.746887,162.943451 
	C261.443207,162.771439 255.143738,162.059662 248.846909,162.108551 
	C237.744293,162.194717 226.644470,162.675308 215.544678,163.028839 
	C214.345291,163.067032 213.153885,163.356308 211.958786,163.529114 
	C211.967560,163.998474 211.976334,164.467819 211.985107,164.937164 
	C214.986923,164.937164 217.988739,164.937164 220.850616,165.302505 
	C214.321381,166.695404 207.932068,167.722961 201.804657,168.515594 
	C203.628510,167.402603 205.190475,166.524506 206.752457,165.646408 
	C205.420288,164.992737 204.368027,164.840805 203.499908,165.171814 
	C188.177322,171.014587 176.562027,180.715927 172.143860,197.080978 
	C171.066696,201.070831 171.985168,205.599472 171.973297,210.308746 
	C171.663239,219.911591 171.118057,229.086563 171.135864,238.260437 
	C171.155075,248.157837 171.701035,258.054230 172.011703,268.294739 
	C172.004547,269.096771 172.002884,269.555115 172.005035,270.383026 
	C172.017090,271.491150 172.025314,272.229645 171.791718,273.302246 
	C170.929184,278.975403 169.499374,284.440247 174.084000,289.193909 
	C174.443451,289.656738 174.701416,289.861420 175.002975,290.003845 
	C175.001221,289.998779 174.991302,289.995392 174.983337,290.374359 
	C175.641724,292.837585 176.308105,294.921875 176.884247,297.322815 
	C175.471817,297.497620 174.087982,297.554504 172.841721,297.167877 
	C170.909149,296.568298 169.070374,295.666382 167.162781,294.577271 
	C167.101349,293.841034 167.068939,293.420105 167.190216,292.799377 
	C166.888840,292.074982 166.433807,291.550385 165.746918,290.723145 
	C164.672745,285.357819 163.158234,280.302460 163.102905,275.231201 
	C162.845245,251.608582 162.947800,227.981369 163.053848,204.356400 
	C163.065491,201.760391 163.881180,199.159409 164.401566,196.576355 
	C165.143814,192.891983 165.957825,189.222092 166.741196,185.546005 
z"/>
<path fill="#DC081A" opacity="1.000000" stroke="none" 
	d="
M301.717865,163.870926 
	C303.000702,162.053253 304.283508,160.235565 306.149048,157.592224 
	C303.763336,157.347916 302.084930,157.027710 300.406189,157.026093 
	C268.967896,156.995895 237.529282,156.944687 206.091873,157.112823 
	C203.523575,157.126572 200.964264,158.692825 198.399551,159.533997 
	C194.855118,160.696457 191.309540,161.855408 187.367554,163.001831 
	C193.551239,156.973099 201.635666,154.331863 210.213028,154.291031 
	C241.640121,154.141418 273.080841,153.956818 304.493530,154.723343 
	C324.543549,155.212585 337.929993,167.407104 346.790161,184.184311 
	C350.374115,190.970779 352.140472,199.226379 352.733612,206.966736 
	C353.683685,219.364853 352.967651,231.890640 352.437012,244.655838 
	C350.815491,240.863617 349.671387,236.788544 348.631592,232.687012 
	C348.246948,231.169876 348.162170,229.579178 347.842133,228.042557 
	C347.465179,226.232590 346.667664,224.455933 346.604004,222.645447 
	C346.429413,217.680206 346.543793,212.704788 346.543793,206.584671 
	C345.169128,208.442398 344.594818,209.218536 343.658264,210.113068 
	C342.841766,212.479736 342.387512,214.727997 341.704346,216.979111 
	C341.475464,216.981964 341.017639,216.989655 341.012817,216.576080 
	C340.347168,212.112152 339.686401,208.061798 339.027100,203.554047 
	C339.138184,200.963516 339.247742,198.830368 339.627747,196.944916 
	C340.676361,199.462463 341.454468,201.732285 342.498077,204.776520 
	C344.783112,187.770554 322.361359,165.854660 301.717865,163.870926 
z"/>
<path fill="#B60717" opacity="1.000000" stroke="none" 
	d="
M249.812698,329.091309 
	C235.837204,329.155457 221.857986,329.440216 207.887543,329.204590 
	C198.882339,329.052704 191.575684,324.205322 184.299271,318.647675 
	C185.037949,316.494385 185.937561,314.934143 187.186111,312.768738 
	C190.448654,313.926514 193.648605,315.058411 196.845688,316.198273 
	C198.260406,316.702698 200.070862,318.241913 200.335892,315.021301 
	C202.455093,315.724487 204.224243,316.365417 206.239899,317.218079 
	C207.667099,317.931763 208.847778,318.433716 209.769348,319.008545 
	C209.254959,319.281525 208.999695,319.481628 208.744431,319.681732 
	C209.027130,319.987518 209.303421,320.553925 209.593460,320.561066 
	C217.145721,320.746674 224.705383,320.729950 232.251495,321.043549 
	C245.453964,321.592194 258.646210,322.384186 271.847260,322.972565 
	C275.891602,323.152802 279.950745,323.000519 284.855316,323.000519 
	C279.182678,328.812531 273.191895,329.285706 266.758789,328.942566 
	C261.128754,328.642273 255.462784,329.015564 249.812698,329.091309 
z"/>
<path fill="#A50817" opacity="1.000000" stroke="none" 
	d="
M250.200333,329.259216 
	C255.462784,329.015564 261.128754,328.642273 266.758789,328.942566 
	C273.191895,329.285706 279.182678,328.812531 284.855316,323.000519 
	C279.950745,323.000519 275.891602,323.152802 271.847260,322.972565 
	C258.646210,322.384186 245.453964,321.592194 232.251495,321.043549 
	C224.705383,320.729950 217.145721,320.746674 209.593460,320.561066 
	C209.303421,320.553925 209.027130,319.987518 208.744431,319.681732 
	C208.999695,319.481628 209.254959,319.281525 210.235580,319.006866 
	C232.276321,318.890717 253.591690,318.849152 275.380798,318.856201 
	C280.244232,318.906555 284.633972,318.908325 289.418274,318.922729 
	C290.865326,318.924042 291.917755,318.912689 293.312073,318.925842 
	C294.110626,318.941772 294.567352,318.933228 295.443939,318.933777 
	C299.576172,318.644775 303.288483,318.346649 307.028381,318.410797 
	C308.274841,319.253387 309.751160,320.434326 310.669495,320.096832 
	C315.525330,318.312347 320.240692,316.145660 324.248718,314.434326 
	C326.165436,315.811279 327.894287,317.053253 329.623108,318.295227 
	C329.172211,318.651733 328.721313,319.008240 327.709900,319.292297 
	C325.318420,318.674561 323.487488,318.129303 321.789093,317.623535 
	C319.125000,320.889160 316.597717,323.987122 314.070435,327.085083 
	C309.041809,327.881775 304.023590,329.276764 298.982605,329.364746 
	C282.855621,329.646118 266.720154,329.443146 250.200333,329.259216 
z"/>
<path fill="#F80718" opacity="1.000000" stroke="none" 
	d="
M344.020508,209.994659 
	C344.594818,209.218536 345.169128,208.442398 346.543793,206.584671 
	C346.543793,212.704788 346.429413,217.680206 346.604004,222.645447 
	C346.667664,224.455933 347.465179,226.232590 347.842133,228.042557 
	C348.162170,229.579178 348.246948,231.169876 348.631592,232.687012 
	C349.671387,236.788544 350.815491,240.863617 352.328552,245.061020 
	C352.785583,245.850189 352.832275,246.527557 352.482666,247.708191 
	C350.398224,252.136520 348.710114,256.061554 347.015015,260.323364 
	C347.009644,261.109222 347.011261,261.558258 346.707245,262.222656 
	C343.839294,266.114960 345.010162,269.583527 346.894409,273.324036 
	C345.861603,274.100800 344.925995,274.560303 343.737366,275.141846 
	C342.983032,275.516876 342.481689,275.769928 341.986725,275.562775 
	C341.892365,271.972260 341.688477,268.841309 341.709625,265.711853 
	C341.783356,254.790558 341.934937,243.869781 342.265198,232.670517 
	C342.989166,224.926376 343.504822,217.460526 344.020508,209.994659 
z"/>
<path fill="#DC081A" opacity="1.000000" stroke="none" 
	d="
M346.991547,273.006836 
	C345.010162,269.583527 343.839294,266.114960 347.047058,262.218384 
	C348.527679,261.773956 349.362885,261.549133 350.198090,261.324280 
	C350.181885,261.062775 350.165649,260.801270 350.149414,260.539764 
	C349.106934,260.355377 348.064453,260.170959 347.021973,259.986572 
	C348.710114,256.061554 350.398224,252.136520 352.413330,248.043167 
	C352.225159,261.000580 351.709991,274.126343 350.770386,287.482391 
	C349.563141,288.139008 348.780304,288.565277 347.988464,289.377167 
	C347.481628,291.617950 346.983795,293.473114 346.485962,295.328308 
	C345.971741,295.290588 345.457550,295.252869 344.943359,295.215149 
	C344.298004,291.810516 343.652679,288.405853 343.266724,284.931335 
	C343.666138,284.389313 343.806183,283.917236 343.946198,283.445129 
	C343.306061,283.954742 342.665924,284.464325 342.011902,284.988678 
	C341.998016,285.003448 341.970825,285.033478 341.682922,285.139099 
	C336.013367,284.151947 335.314911,281.750458 339.311829,276.960571 
	C340.409729,276.616699 341.195038,276.319855 341.980377,276.023010 
	C342.481689,275.769928 342.983032,275.516876 343.849060,275.462830 
	C345.565552,275.722046 346.917389,275.782196 348.269226,275.842377 
	C347.843353,274.897186 347.417450,273.952026 346.991547,273.006836 
M348.241516,268.180206 
	C348.327850,267.419586 348.414154,266.658966 348.500488,265.898346 
	C348.170197,265.893402 347.839905,265.888458 347.509644,265.883484 
	C347.573547,266.644196 347.637482,267.404907 348.241516,268.180206 
M344.735413,278.906067 
	C344.885162,279.484619 345.034943,280.063171 345.184692,280.641724 
	C345.554077,280.468933 345.923462,280.296112 346.292816,280.123291 
	C345.941772,279.704071 345.590729,279.284851 344.735413,278.906067 
M347.022736,283.573242 
	C347.435242,283.463898 347.847778,283.354553 348.260284,283.245209 
	C348.159424,282.971558 348.058563,282.697876 347.957672,282.424225 
	C347.541138,282.689331 347.124634,282.954407 347.022736,283.573242 
M351.359375,279.094666 
	C351.359375,279.094666 351.633698,279.015167 351.633698,279.015167 
	C351.633698,279.015167 351.361420,278.926147 351.359375,279.094666 
z"/>
<path fill="#C90E1D" opacity="1.000000" stroke="none" 
	d="
M166.491058,185.805405 
	C165.957825,189.222092 165.143814,192.891983 164.401566,196.576355 
	C163.881180,199.159409 163.065491,201.760391 163.053848,204.356400 
	C162.947800,227.981369 162.845245,251.608582 163.102905,275.231201 
	C163.158234,280.302460 164.672745,285.357819 165.804703,291.005615 
	C166.408401,292.060242 166.722473,292.529694 167.036545,292.999176 
	C167.068939,293.420105 167.101349,293.841034 167.057800,294.966736 
	C166.904327,295.928009 166.826782,296.184570 166.749237,296.441162 
	C164.929840,289.617554 161.745041,282.834900 161.538956,275.962891 
	C160.831436,252.370453 160.807266,228.738525 161.342987,205.140274 
	C161.488113,198.748016 164.529114,192.421494 166.491058,185.805405 
z"/>
<path fill="#970815" opacity="1.000000" stroke="none" 
	d="
M329.914001,318.178650 
	C327.894287,317.053253 326.165436,315.811279 324.248718,314.434326 
	C320.240692,316.145660 315.525330,318.312347 310.669495,320.096832 
	C309.751160,320.434326 308.274841,319.253387 307.316406,318.467285 
	C314.711609,314.435944 321.846344,310.710327 329.167664,307.225403 
	C329.663116,308.953339 329.971954,310.440582 330.280823,311.927826 
	C331.523804,311.312958 332.712128,310.507294 334.023621,310.131226 
	C335.690826,309.653076 337.457947,309.523132 339.181976,309.243073 
	C336.189606,312.182739 333.197235,315.122406 329.914001,318.178650 
z"/>
<path fill="#DC081A" opacity="1.000000" stroke="none" 
	d="
M166.823334,296.774994 
	C166.826782,296.184570 166.904327,295.928009 167.086853,295.282043 
	C169.070374,295.666382 170.909149,296.568298 172.841721,297.167877 
	C174.087982,297.554504 175.471817,297.497620 177.127274,297.543396 
	C178.972427,299.617645 180.484299,301.787964 182.015488,304.304871 
	C182.714523,305.432190 183.394257,306.212921 184.251587,307.120239 
	C184.651611,307.436981 184.836929,307.658203 184.970520,308.233734 
	C181.657242,310.501465 178.231033,309.968018 174.786606,309.080536 
	C172.156876,305.089966 169.527145,301.099396 166.823334,296.774994 
z"/>
<path fill="#B60717" opacity="1.000000" stroke="none" 
	d="
M339.170776,309.229370 
	C337.457947,309.523132 335.690826,309.653076 334.023621,310.131226 
	C332.712128,310.507294 331.523804,311.312958 330.280823,311.927826 
	C329.971954,310.440582 329.663116,308.953339 329.259766,306.903381 
	C332.085785,302.538116 335.006317,298.735626 338.253357,295.088867 
	C344.487549,296.373657 342.006622,301.369965 342.974152,304.776489 
	C342.538818,305.440918 342.103485,306.105377 341.091309,306.974243 
	C340.068054,307.849518 339.621674,308.520386 339.175293,309.191254 
	C339.175323,309.191254 339.159607,309.215637 339.170776,309.229370 
z"/>
<path fill="#C90E1D" opacity="1.000000" stroke="none" 
	d="
M174.860001,309.420105 
	C178.231033,309.968018 181.657242,310.501465 185.304764,308.201843 
	C187.767914,308.566315 189.882187,309.285889 192.185745,310.294556 
	C194.911987,312.042053 197.448914,313.500549 199.985840,314.959045 
	C200.070862,318.241913 198.260406,316.702698 196.845688,316.198273 
	C193.648605,315.058411 190.448654,313.926514 187.186111,312.768738 
	C185.937561,314.934143 185.037949,316.494385 184.060760,318.383728 
	C180.966583,315.728485 177.949982,312.744080 174.860001,309.420105 
z"/>
<path fill="#C90E1D" opacity="1.000000" stroke="none" 
	d="
M343.230804,304.566833 
	C342.006622,301.369965 344.487549,296.373657 338.127075,294.777313 
	C338.174194,292.834412 338.546478,291.298615 339.206665,289.898651 
	C340.000000,288.216522 341.038483,286.650055 341.970825,285.033478 
	C341.970825,285.033478 341.998016,285.003448 342.257080,284.997253 
	C342.516174,284.991058 343.007324,285.001221 343.007324,285.001221 
	C343.652679,288.405853 344.298004,291.810516 344.943359,295.215149 
	C345.457550,295.252869 345.971741,295.290588 346.485962,295.328308 
	C346.983795,293.473114 347.481628,291.617950 348.327271,289.377411 
	C349.352478,288.986969 350.029938,288.981873 350.707397,288.976776 
	C348.300751,294.103607 345.894104,299.230408 343.230804,304.566833 
z"/>
<path fill="#5B5E61" opacity="1.000000" stroke="none" 
	d="
M270.999756,339.015198 
	C249.066208,339.015991 227.632584,339.015991 206.198975,339.015991 
	C206.199844,338.761749 206.200729,338.507507 206.201614,338.253265 
	C234.434128,338.253265 262.666626,338.253265 290.899139,338.253265 
	C290.900970,338.506958 290.902802,338.760681 290.904602,339.014374 
	C284.436310,339.014374 277.967987,339.014374 270.999756,339.015198 
z"/>
<path fill="#5B5E61" opacity="1.000000" stroke="none" 
	d="
M153.927063,228.000168 
	C153.929245,245.910263 153.929245,263.320374 153.929245,280.730469 
	C153.706802,280.729980 153.484375,280.729523 153.261932,280.729034 
	C153.261932,253.144104 153.261932,225.559174 153.261932,197.974243 
	C153.482925,197.971420 153.703903,197.968597 153.924896,197.965775 
	C153.924896,207.810577 153.924896,217.655380 153.927063,228.000168 
z"/>
<path fill="#970815" opacity="1.000000" stroke="none" 
	d="
M314.441193,327.079468 
	C316.597717,323.987122 319.125000,320.889160 321.789093,317.623535 
	C323.487488,318.129303 325.318420,318.674561 327.419525,319.336914 
	C323.397095,321.993927 319.104523,324.533905 314.441193,327.079468 
z"/>
<path fill="#D80F1F" opacity="1.000000" stroke="none" 
	d="
M350.814087,288.726349 
	C350.029938,288.981873 349.352478,288.986969 348.336243,288.991821 
	C348.780304,288.565277 349.563141,288.139008 350.603790,287.823700 
	C350.881317,288.115082 350.901031,288.295502 350.814087,288.726349 
z"/>
<path fill="#970815" opacity="1.000000" stroke="none" 
	d="
M339.474915,309.111633 
	C339.621674,308.520386 340.068054,307.849518 340.843933,307.141968 
	C340.707153,307.747498 340.240875,308.389740 339.474915,309.111633 
z"/>
<path fill="#F90513" opacity="1.000000" stroke="none" 
	d="
M201.542755,168.750519 
	C207.932068,167.722961 214.321381,166.695404 221.164490,165.089386 
	C223.419357,164.358353 225.220428,164.205780 227.189301,164.214890 
	C227.897247,164.269470 228.437393,164.162369 229.317764,164.051971 
	C230.111633,164.051651 230.565262,164.054596 231.123383,164.159424 
	C231.227844,164.261292 231.637207,164.310089 231.637207,164.310089 
	C231.637207,164.310089 231.981277,164.057999 232.411224,164.046997 
	C234.561600,164.044052 236.282028,164.052094 238.128677,164.386780 
	C241.349457,166.725159 244.271683,166.580566 247.375244,164.010956 
	C248.499802,164.014572 249.249512,164.021744 250.088562,164.393463 
	C253.701828,168.200302 257.092896,167.945938 259.452454,164.078369 
	C262.260956,164.065811 264.626404,164.070496 267.029938,164.440323 
	C269.891541,167.058884 272.715088,169.312317 275.834442,171.801834 
	C273.271423,173.647568 270.726837,175.789368 267.858704,177.328140 
	C267.141296,177.713028 264.694153,176.464340 264.234406,175.434250 
	C262.964111,172.588211 261.093262,172.350800 259.188721,174.034988 
	C257.597443,175.442154 255.803864,177.581207 255.742203,179.450333 
	C255.693787,180.917770 257.885681,182.932114 259.550049,183.895218 
	C264.746521,186.902222 269.397736,191.955338 276.484131,189.247742 
	C276.953217,189.068497 277.918579,189.918396 278.533112,190.432938 
	C282.880920,194.073196 286.253265,194.274307 291.210449,191.277069 
	C292.257568,190.643967 293.516876,190.361862 294.613312,189.942886 
	C296.785614,193.948273 297.507538,197.326065 292.865936,200.006882 
	C294.880524,203.226700 296.687683,206.115021 298.494873,209.003326 
	C298.995300,208.849915 299.495728,208.696487 299.996185,208.543060 
	C300.418549,207.193817 300.446167,205.399384 301.352386,204.595795 
	C302.850891,203.266983 304.860321,202.414246 306.789093,201.754822 
	C307.176666,201.622314 308.925629,203.645706 308.743896,203.992722 
	C307.987579,205.436890 306.842896,206.738907 305.627563,207.862534 
	C304.611572,208.801804 303.299133,209.420380 303.286804,209.428314 
	C303.640137,212.176422 303.821625,213.587967 303.751892,215.000824 
	C303.333191,215.002762 303.165710,215.003403 302.644012,214.940613 
	C295.405273,209.534042 284.740845,210.510773 280.382416,200.135025 
	C278.731354,206.547363 278.731354,206.547363 272.048981,209.989410 
	C273.674622,210.988953 275.338226,212.011810 276.789703,213.291229 
	C270.383118,219.671783 264.188690,225.795776 257.620422,232.289368 
	C255.266953,229.573730 253.018631,226.979431 250.965973,224.126617 
	C254.040405,219.823288 249.641937,219.374954 247.977402,217.834641 
	C245.181931,215.247757 242.036621,213.038925 238.590363,210.317108 
	C238.156784,210.397858 236.583862,210.690796 235.003845,210.991165 
	C234.996765,210.998581 235.002563,210.976212 234.856995,210.617554 
	C231.103882,210.104156 227.144302,208.909866 223.954941,209.989944 
	C214.454956,213.207123 208.803329,221.846176 209.089401,231.927002 
	C209.213409,236.297470 210.335785,240.639633 210.669098,244.902649 
	C203.713257,240.485519 203.713257,240.485519 199.872269,243.093094 
	C204.594406,243.420883 206.434784,245.226974 204.968735,248.826706 
	C203.164429,253.256989 205.244232,254.519852 208.995758,255.421387 
	C208.331131,257.892548 207.665573,259.945679 206.892288,261.678711 
	C204.937286,260.082458 203.090012,258.806366 201.203674,257.503296 
	C200.308884,258.508453 199.565079,259.343994 198.323410,260.738831 
	C197.832947,255.067612 197.411118,250.190033 197.050308,246.017990 
	C194.410889,244.882904 192.430664,243.704636 190.298065,243.264236 
	C189.358032,243.070114 188.108429,244.375046 186.763672,245.052765 
	C186.244507,245.411194 185.961075,245.716248 185.677643,246.021301 
	C185.786926,246.120193 185.896210,246.219055 186.005493,246.317932 
	C186.337204,245.878830 186.668915,245.439728 187.356247,245.023865 
	C191.456985,247.013000 193.444824,250.069260 194.514252,253.286270 
	C191.153580,253.286270 188.423813,252.498138 186.668732,253.470078 
	C184.003952,254.945770 182.015854,257.643402 180.041092,259.534027 
	C177.904236,258.460724 176.442810,257.726715 174.984695,256.524841 
	C174.990265,246.289505 175.044174,236.521469 174.950531,226.754852 
	C174.932175,224.840210 174.342850,222.931030 174.010132,220.550171 
	C173.916550,214.579956 173.829712,209.078918 173.740479,203.195251 
	C176.784866,186.380096 186.618301,175.487427 201.542755,168.750519 
M271.612122,192.338806 
	C271.312256,192.782944 271.012390,193.227097 270.712524,193.671249 
	C271.246857,193.843155 271.781219,194.015060 272.315552,194.186951 
	C272.250916,193.624771 272.186279,193.062592 271.612122,192.338806 
M276.232483,193.480957 
	C276.284546,192.946472 276.336609,192.411972 276.388641,191.877502 
	C275.997040,191.946060 275.605438,192.014618 275.213837,192.083176 
	C275.401672,192.614426 275.589539,193.145676 276.232483,193.480957 
z"/>
<path fill="#F80718" opacity="1.000000" stroke="none" 
	d="
M304.003113,214.999527 
	C303.821625,213.587967 303.640137,212.176422 303.286804,209.428314 
	C303.299133,209.420380 304.611572,208.801804 305.627563,207.862534 
	C306.842896,206.738907 307.987579,205.436890 308.743896,203.992722 
	C308.925629,203.645706 307.176666,201.622314 306.789093,201.754822 
	C304.860321,202.414246 302.850891,203.266983 301.352386,204.595795 
	C300.446167,205.399384 300.418549,207.193817 299.996185,208.543060 
	C299.495728,208.696487 298.995300,208.849915 298.494873,209.003326 
	C296.687683,206.115021 294.880524,203.226700 292.865936,200.006882 
	C297.507538,197.326065 296.785614,193.948273 294.613312,189.942886 
	C293.516876,190.361862 292.257568,190.643967 291.210449,191.277069 
	C286.253265,194.274307 282.880920,194.073196 278.533112,190.432938 
	C277.918579,189.918396 276.953217,189.068497 276.484131,189.247742 
	C269.397736,191.955338 264.746521,186.902222 259.550049,183.895218 
	C257.885681,182.932114 255.693787,180.917770 255.742203,179.450333 
	C255.803864,177.581207 257.597443,175.442154 259.188721,174.034988 
	C261.093262,172.350800 262.964111,172.588211 264.234406,175.434250 
	C264.694153,176.464340 267.141296,177.713028 267.858704,177.328140 
	C270.726837,175.789368 273.271423,173.647568 275.834442,171.801834 
	C272.715088,169.312317 269.891541,167.058884 267.467285,164.418228 
	C270.149323,164.008423 272.433807,164.014618 274.710022,163.880920 
	C274.827484,163.874023 274.874664,162.670593 274.954529,162.024261 
	C283.062897,162.543091 291.171265,163.061920 299.842194,163.915558 
	C307.043335,167.169708 314.044312,169.480621 320.227600,173.164200 
	C327.763245,177.653427 334.173676,183.674637 337.095398,192.865234 
	C337.802612,194.433182 338.521851,195.590515 339.263611,196.720215 
	C339.286133,196.692566 339.357300,196.697205 339.357300,196.697205 
	C339.247742,198.830368 339.138184,200.963516 338.676086,203.482849 
	C334.684540,201.432693 330.751251,200.438080 327.858063,204.380417 
	C326.695251,205.964874 327.476257,208.975876 327.324402,212.434464 
	C325.559448,211.647064 323.424133,210.694443 321.307526,209.750137 
	C317.879913,222.666397 317.440186,223.204086 312.704895,220.003662 
	C313.088623,219.685135 313.466583,219.427414 313.775909,219.104004 
	C314.672852,218.166077 315.670319,217.276566 316.309723,216.181946 
	C316.431274,215.973862 314.863373,214.237625 314.470947,214.371063 
	C313.245422,214.787735 312.280365,215.908661 311.084229,216.487854 
	C309.075439,217.460510 306.966370,218.226120 304.593567,219.074448 
	C303.877655,219.061249 303.467621,219.052444 302.720581,219.053040 
	C302.159515,219.076385 301.935547,219.090332 301.482117,219.010391 
	C300.985260,218.667953 300.888092,218.364853 301.047424,217.930893 
	C301.133789,217.854599 301.302002,217.697021 301.446350,217.624374 
	C301.759247,217.406570 301.886902,217.231552 301.986237,217.015320 
	C301.998779,217.003952 302.024811,216.982330 302.322510,216.975525 
	C303.081207,216.312332 303.542145,215.655930 304.003113,214.999527 
z"/>
<path fill="#F80718" opacity="1.000000" stroke="none" 
	d="
M174.981384,256.992676 
	C176.442810,257.726715 177.904236,258.460724 180.041092,259.534027 
	C182.015854,257.643402 184.003952,254.945770 186.668732,253.470078 
	C188.423813,252.498138 191.153580,253.286270 194.514252,253.286270 
	C193.444824,250.069260 191.456985,247.013000 187.355942,245.023560 
	C187.000000,245.000000 186.999390,244.999390 186.999390,244.999390 
	C188.108429,244.375046 189.358032,243.070114 190.298065,243.264236 
	C192.430664,243.704636 194.410889,244.882904 197.050308,246.017990 
	C197.411118,250.190033 197.832947,255.067612 198.323410,260.738831 
	C199.565079,259.343994 200.308884,258.508453 201.203674,257.503296 
	C203.090012,258.806366 204.937286,260.082458 206.647522,261.929199 
	C199.113663,266.305389 191.390915,272.205200 192.966034,280.141022 
	C194.366821,287.198578 185.632370,291.479187 190.995270,297.796844 
	C189.549133,298.672180 188.482483,299.317841 187.354431,300.000641 
	C188.071259,301.683777 188.657349,303.059937 189.625504,305.333160 
	C187.479340,304.668213 186.278809,304.296265 185.037659,303.596619 
	C184.345673,302.502655 183.694336,301.736389 182.930939,300.648376 
	C180.209702,296.882904 177.600494,293.439148 174.991302,289.995392 
	C174.991302,289.995392 175.001221,289.998779 174.864014,289.796936 
	C174.506805,289.337708 174.243591,289.137024 173.937180,288.992950 
	C169.499374,284.440247 170.929184,278.975403 172.082977,273.219635 
	C172.411118,271.873108 172.206177,270.943268 172.001221,270.013428 
	C172.002884,269.555115 172.004547,269.096771 172.367249,268.155762 
	C173.148926,264.107208 173.569519,260.541412 174.237900,256.981659 
	C174.485687,256.987732 174.981384,256.992676 174.981384,256.992676 
z"/>
<path fill="#F090A4" opacity="1.000000" stroke="none" 
	d="
M201.804657,168.515594 
	C186.618301,175.487427 176.784866,186.380096 173.560684,203.530701 
	C172.917557,206.125977 172.451813,208.003189 171.986053,209.880386 
	C171.985168,205.599472 171.066696,201.070831 172.143860,197.080978 
	C176.562027,180.715927 188.177322,171.014587 203.499908,165.171814 
	C204.368027,164.840805 205.420288,164.992737 206.752457,165.646408 
	C205.190475,166.524506 203.628510,167.402603 201.804657,168.515594 
z"/>
<path fill="#F090A4" opacity="1.000000" stroke="none" 
	d="
M337.107422,192.454620 
	C334.173676,183.674637 327.763245,177.653427 320.227600,173.164200 
	C314.044312,169.480621 307.043335,167.169708 300.357544,164.086075 
	C300.660645,163.940140 301.011017,163.958496 301.539612,163.923889 
	C322.361359,165.854660 344.783112,187.770554 342.498077,204.776520 
	C341.454468,201.732285 340.676361,199.462463 339.627747,196.944916 
	C339.357300,196.697205 339.286133,196.692566 339.280823,196.364014 
	C338.552856,194.841858 337.830139,193.648239 337.107422,192.454620 
z"/>
<path fill="#F91F33" opacity="1.000000" stroke="none" 
	d="
M171.973282,210.308746 
	C172.451813,208.003189 172.917557,206.125977 173.563080,203.913330 
	C173.829712,209.078918 173.916550,214.579956 174.004395,221.016449 
	C174.000320,233.626465 173.995224,245.301025 173.990112,256.975586 
	C173.569519,260.541412 173.148926,264.107208 172.372772,267.812042 
	C171.701035,258.054230 171.155075,248.157837 171.135864,238.260437 
	C171.118057,229.086563 171.663239,219.911591 171.973282,210.308746 
z"/>
<path fill="#F91F33" opacity="1.000000" stroke="none" 
	d="
M274.549133,162.102051 
	C274.874664,162.670593 274.827484,163.874023 274.710022,163.880920 
	C272.433807,164.014618 270.149323,164.008423 267.429199,164.053085 
	C264.626404,164.070496 262.260956,164.065811 259.002014,164.053619 
	C255.405411,164.040375 252.702316,164.034637 249.999207,164.028900 
	C249.249512,164.021744 248.499802,164.014572 246.925293,164.001770 
	C243.401138,164.017456 240.701797,164.038788 238.002457,164.060135 
	C236.282028,164.052094 234.561600,164.044052 232.170837,164.038544 
	C231.500504,164.041107 231.018906,164.057541 231.018906,164.057541 
	C230.565262,164.054596 230.111633,164.051651 228.992111,164.037476 
	C227.891312,164.035263 227.456406,164.044250 227.021484,164.053223 
	C225.220428,164.205780 223.419357,164.358353 221.304428,164.724045 
	C217.988739,164.937164 214.986923,164.937164 211.985107,164.937164 
	C211.976334,164.467819 211.967560,163.998474 211.958786,163.529114 
	C213.153885,163.356308 214.345291,163.067032 215.544678,163.028839 
	C226.644470,162.675308 237.744293,162.194717 248.846909,162.108551 
	C255.143738,162.059662 261.443207,162.771439 267.746887,162.943451 
	C269.870667,163.001404 272.010986,162.451767 274.549133,162.102051 
z"/>
<path fill="#F91F33" opacity="1.000000" stroke="none" 
	d="
M174.983337,290.374359 
	C177.600494,293.439148 180.209702,296.882904 182.934967,301.028076 
	C183.025208,302.486908 182.999374,303.244293 182.728897,303.997620 
	C182.484253,303.993591 181.996185,303.958282 181.996185,303.958282 
	C180.484299,301.787964 178.972427,299.617645 177.217514,297.226715 
	C176.308105,294.921875 175.641724,292.837585 174.983337,290.374359 
z"/>
<path fill="#F91F33" opacity="1.000000" stroke="none" 
	d="
M172.005035,270.383026 
	C172.206177,270.943268 172.411118,271.873108 172.324799,272.885559 
	C172.025314,272.229645 172.017090,271.491150 172.005035,270.383026 
z"/>
<path fill="#DC081A" opacity="1.000000" stroke="none" 
	d="
M167.190216,292.799377 
	C166.722473,292.529694 166.408401,292.060242 166.036560,291.308258 
	C166.433807,291.550385 166.888840,292.074982 167.190216,292.799377 
z"/>
<path fill="#F91F33" opacity="1.000000" stroke="none" 
	d="
M174.084000,289.193909 
	C174.243591,289.137024 174.506805,289.337708 174.865768,289.802002 
	C174.701416,289.861420 174.443451,289.656738 174.084000,289.193909 
z"/>
<path fill="#E70A1C" opacity="1.000000" stroke="none" 
	d="
M341.986725,275.562775 
	C341.195038,276.319855 340.409729,276.616699 339.305573,276.582336 
	C336.241577,271.137146 333.498169,266.022156 330.750183,260.909576 
	C329.920166,259.365295 328.229492,257.733093 328.389069,256.303802 
	C329.038879,250.484863 325.388367,248.540115 320.912842,246.632629 
	C320.563110,244.504715 320.273010,242.752701 319.892487,240.683746 
	C318.882751,239.902710 317.963409,239.438614 317.033783,238.574387 
	C316.388306,236.198120 315.807648,234.202240 315.101807,232.251678 
	C314.462677,230.485489 313.686981,228.768723 313.333862,227.051056 
	C317.117645,229.529205 320.539032,231.986465 324.721100,234.990051 
	C326.059082,234.772507 328.844666,234.319580 332.315918,233.755173 
	C330.878815,232.166382 329.809814,230.984558 328.143524,229.142456 
	C331.394897,228.582275 333.918213,228.147552 336.470184,227.707886 
	C336.385681,227.414581 336.388062,226.828796 336.097961,226.505371 
	C331.836365,221.754501 331.823181,221.755432 337.595062,218.660675 
	C338.713135,218.061203 339.875641,217.544525 341.017639,216.989655 
	C341.017639,216.989655 341.475464,216.981964 341.726593,217.448151 
	C342.004120,222.925842 342.030518,227.937317 342.056885,232.948807 
	C341.934937,243.869781 341.783356,254.790558 341.709625,265.711853 
	C341.688477,268.841309 341.892365,271.972260 341.986725,275.562775 
z"/>
<path fill="#F20919" opacity="1.000000" stroke="none" 
	d="
M341.012817,216.576096 
	C339.875641,217.544525 338.713135,218.061203 337.595062,218.660675 
	C331.823181,221.755432 331.836365,221.754501 336.097961,226.505371 
	C336.388062,226.828796 336.385681,227.414581 336.470184,227.707886 
	C333.918213,228.147552 331.394897,228.582275 328.143524,229.142456 
	C329.809814,230.984558 330.878815,232.166382 332.315918,233.755173 
	C328.844666,234.319580 326.059082,234.772507 324.721100,234.990051 
	C320.539032,231.986465 317.117645,229.529205 313.343262,227.043671 
	C312.990295,227.015411 312.975372,227.024857 312.893860,226.692276 
	C310.860260,224.586533 308.908234,222.813354 306.660309,220.961411 
	C305.876129,220.281372 305.387817,219.680099 304.899506,219.078842 
	C306.966370,218.226120 309.075439,217.460510 311.084229,216.487854 
	C312.280365,215.908661 313.245422,214.787735 314.470947,214.371063 
	C314.863373,214.237625 316.431274,215.973862 316.309723,216.181946 
	C315.670319,217.276566 314.672852,218.166077 313.775909,219.104004 
	C313.466583,219.427414 313.088623,219.685135 312.704895,220.003662 
	C317.440186,223.204086 317.879913,222.666397 321.307526,209.750137 
	C323.424133,210.694443 325.559448,211.647064 327.324402,212.434464 
	C327.476257,208.975876 326.695251,205.964874 327.858063,204.380417 
	C330.751251,200.438080 334.684540,201.432693 338.674591,203.940231 
	C339.686401,208.061798 340.347168,212.112152 341.012817,216.576096 
z"/>
<path fill="#F91F33" opacity="1.000000" stroke="none" 
	d="
M342.265198,232.670517 
	C342.030518,227.937317 342.004120,222.925842 341.955505,217.445312 
	C342.387512,214.727997 342.841766,212.479736 343.658264,210.113068 
	C343.504822,217.460526 342.989166,224.926376 342.265198,232.670517 
z"/>
<path fill="#E70C1E" opacity="1.000000" stroke="none" 
	d="
M200.335892,315.021301 
	C197.448914,313.500549 194.911987,312.042053 192.419952,310.086426 
	C196.694366,308.409119 200.880524,307.029297 205.164291,306.099091 
	C210.556961,304.928040 212.087616,301.372894 208.642563,296.416260 
	C213.067825,293.932953 217.544586,291.607330 221.773529,288.895264 
	C222.653244,288.331085 222.615128,286.335785 223.323944,284.888611 
	C224.593933,283.600494 225.539963,282.423706 226.616257,281.084930 
	C227.696594,282.548492 228.516541,283.659302 229.511032,285.006561 
	C236.418747,277.968994 225.860565,277.976715 225.309357,273.457092 
	C227.074509,273.271118 228.625793,273.107697 230.499817,273.012939 
	C235.469894,278.073151 240.118698,283.063263 244.763916,288.056732 
	C247.207947,290.683990 249.645645,293.317169 252.068390,296.211792 
	C252.042847,296.652252 252.035126,296.828583 251.711868,297.185852 
	C248.209961,297.695007 245.023590,298.023163 240.729233,298.465424 
	C241.952103,300.265900 243.185959,302.082520 244.966721,304.704346 
	C241.952179,304.133881 239.930145,309.797821 236.989334,304.963409 
	C234.774979,301.323181 233.423294,301.641724 231.478317,304.899109 
	C231.006805,305.688782 229.977112,306.123016 229.358810,306.851959 
	C228.151474,308.275330 226.738327,309.651306 226.001099,311.309509 
	C225.303650,312.878235 225.363220,314.783569 225.017395,317.006378 
	C218.572540,317.006378 212.282959,317.006378 205.993378,317.006378 
	C204.224243,316.365417 202.455093,315.724487 200.335892,315.021301 
z"/>
<path fill="#D80F1F" opacity="1.000000" stroke="none" 
	d="
M206.239899,317.218079 
	C212.282959,317.006378 218.572540,317.006378 225.017395,317.006378 
	C225.363220,314.783569 225.303650,312.878235 226.001099,311.309509 
	C226.738327,309.651306 228.151474,308.275330 229.358810,306.851959 
	C229.977112,306.123016 231.006805,305.688782 231.478317,304.899109 
	C233.423294,301.641724 234.774979,301.323181 236.989334,304.963409 
	C239.930145,309.797821 241.952179,304.133881 244.966721,304.704346 
	C243.185959,302.082520 241.952103,300.265900 240.729233,298.465424 
	C245.023590,298.023163 248.209961,297.695007 251.996918,297.368713 
	C258.039978,301.092560 260.478088,308.682129 268.232880,309.491821 
	C268.867188,309.558075 269.520813,310.484680 269.964478,311.146301 
	C271.656647,313.670135 273.266479,316.249176 274.907074,318.807587 
	C253.591690,318.849152 232.276321,318.890717 210.494690,318.934021 
	C208.847778,318.433716 207.667099,317.931763 206.239899,317.218079 
z"/>
<path fill="#D80F1F" opacity="1.000000" stroke="none" 
	d="
M320.972473,247.008514 
	C325.388367,248.540115 329.038879,250.484863 328.389069,256.303802 
	C328.229492,257.733093 329.920166,259.365295 330.750183,260.909576 
	C333.498169,266.022156 336.241577,271.137146 338.993042,276.629395 
	C335.314911,281.750458 336.013367,284.151947 341.682922,285.139099 
	C341.038483,286.650055 340.000000,288.216522 339.206665,289.898651 
	C338.546478,291.298615 338.174194,292.834412 337.800598,294.621582 
	C335.006317,298.735626 332.085785,302.538116 329.073181,306.662659 
	C321.846344,310.710327 314.711609,314.435944 307.288849,318.105042 
	C303.288483,318.346649 299.576172,318.644775 295.369720,318.688293 
	C294.240479,318.589600 293.605347,318.745483 292.970215,318.901367 
	C291.917755,318.912689 290.865326,318.924042 289.270020,318.588684 
	C288.037903,317.850769 287.387665,317.229828 286.653107,317.105011 
	C281.240753,316.185211 274.994720,310.424683 273.621735,304.968140 
	C276.666077,302.609589 279.495789,300.452576 283.415649,298.934143 
	C288.231781,297.068542 291.637146,291.539398 295.617554,287.559082 
	C296.293030,286.883575 296.630707,285.750732 297.399994,285.307037 
	C305.524109,280.621307 309.507721,272.305511 315.084473,265.384430 
	C316.953674,263.064606 319.248291,261.076172 321.008636,258.685974 
	C321.680328,257.773926 321.967590,255.350723 321.462067,254.996109 
	C317.771271,252.407135 318.725494,249.808151 320.972473,247.008514 
M276.469330,305.496979 
	C276.469330,305.496979 276.513916,305.479095 276.469330,305.496979 
z"/>
<path fill="#C90E1D" opacity="1.000000" stroke="none" 
	d="
M320.912842,246.632629 
	C318.725494,249.808151 317.771271,252.407135 321.462067,254.996109 
	C321.967590,255.350723 321.680328,257.773926 321.008636,258.685974 
	C319.248291,261.076172 316.953674,263.064606 315.084473,265.384430 
	C309.507721,272.305511 305.524109,280.621307 297.399994,285.307037 
	C296.630707,285.750732 296.293030,286.883575 295.617554,287.559082 
	C291.637146,291.539398 288.231781,297.068542 283.415649,298.934143 
	C279.495789,300.452576 276.666077,302.609589 273.621735,304.968140 
	C274.994720,310.424683 281.240753,316.185211 286.653107,317.105011 
	C287.387665,317.229828 288.037903,317.850769 288.875458,318.576050 
	C284.633972,318.908325 280.244232,318.906555 275.380798,318.856201 
	C273.266479,316.249176 271.656647,313.670135 269.964478,311.146301 
	C269.520813,310.484680 268.867188,309.558075 268.232880,309.491821 
	C260.478088,308.682129 258.039978,301.092560 252.312469,297.187744 
	C252.035126,296.828583 252.042847,296.652252 252.440704,296.225403 
	C254.043594,296.401825 255.328354,296.691040 256.455872,297.280884 
	C260.178131,299.227997 263.843536,301.283752 267.530731,303.297821 
	C267.971985,303.062195 268.413239,302.826599 268.854492,302.590973 
	C267.214752,298.469055 268.838470,297.078949 272.303009,295.739044 
	C277.228485,293.834167 282.507660,291.573395 286.177765,287.976898 
	C292.390228,281.889008 295.899109,273.191620 304.153290,268.920471 
	C304.405701,268.789856 304.514313,268.381287 304.689911,268.102295 
	C307.390564,263.812317 309.906982,259.390900 312.845734,255.270737 
	C315.568146,251.453934 315.398773,242.913315 312.088013,238.615967 
	C312.078705,237.859680 312.082336,237.427155 312.246155,236.819382 
	C312.279541,236.094757 312.152679,235.545364 312.013489,234.671234 
	C311.987946,233.913361 311.974731,233.480270 311.918030,232.704910 
	C310.924408,231.237000 309.974274,230.111359 308.804443,228.804626 
	C308.067932,228.068832 307.551147,227.514130 307.003601,226.761780 
	C306.611877,226.427902 306.250854,226.291702 305.563995,226.048950 
	C304.173035,223.987045 303.107910,222.031662 302.236023,219.928497 
	C302.675690,219.566574 302.885162,219.320877 303.057617,219.043640 
	C303.467621,219.052444 303.877655,219.061249 304.593567,219.074448 
	C305.387817,219.680099 305.876129,220.281372 306.728455,221.302917 
	C309.053436,223.490433 311.014404,225.257645 312.975372,227.024857 
	C312.975372,227.024857 312.990295,227.015411 312.980896,227.022797 
	C313.686981,228.768723 314.462677,230.485489 315.101807,232.251678 
	C315.807648,234.202240 316.388306,236.198120 317.116058,238.896591 
	C318.133392,240.079514 319.058167,240.540100 319.982910,241.000687 
	C320.273010,242.752701 320.563110,244.504715 320.912842,246.632629 
z"/>
<path fill="#C90E1D" opacity="1.000000" stroke="none" 
	d="
M293.312073,318.925842 
	C293.605347,318.745483 294.240479,318.589600 294.949829,318.679199 
	C294.567352,318.933228 294.110626,318.941772 293.312073,318.925842 
z"/>
<path fill="#E70A1C" opacity="1.000000" stroke="none" 
	d="
M346.894409,273.324036 
	C347.417450,273.952026 347.843353,274.897186 348.269226,275.842377 
	C346.917389,275.782196 345.565552,275.722046 344.102051,275.340851 
	C344.925995,274.560303 345.861603,274.100800 346.894409,273.324036 
z"/>
<path fill="#E70A1C" opacity="1.000000" stroke="none" 
	d="
M347.014984,260.323364 
	C348.064453,260.170959 349.106934,260.355377 350.149414,260.539764 
	C350.165649,260.801270 350.181885,261.062775 350.198090,261.324280 
	C349.362885,261.549133 348.527679,261.773956 347.352661,262.003052 
	C347.011261,261.558258 347.009644,261.109222 347.014984,260.323364 
z"/>
<path fill="#E70A1C" opacity="1.000000" stroke="none" 
	d="
M347.971466,268.172913 
	C347.637482,267.404907 347.573547,266.644196 347.509644,265.883484 
	C347.839905,265.888458 348.170197,265.893402 348.500488,265.898346 
	C348.414154,266.658966 348.327850,267.419586 347.971466,268.172913 
z"/>
<path fill="#D80F1F" opacity="1.000000" stroke="none" 
	d="
M344.987549,278.885834 
	C345.590729,279.284851 345.941772,279.704071 346.292816,280.123291 
	C345.923462,280.296112 345.554077,280.468933 345.184692,280.641724 
	C345.034943,280.063171 344.885162,279.484619 344.987549,278.885834 
z"/>
<path fill="#D80F1F" opacity="1.000000" stroke="none" 
	d="
M346.865417,283.396362 
	C347.124634,282.954407 347.541138,282.689331 347.957672,282.424225 
	C348.058563,282.697876 348.159424,282.971558 348.260284,283.245209 
	C347.847778,283.354553 347.435242,283.463898 346.865417,283.396362 
z"/>
<path fill="#D80F1F" opacity="1.000000" stroke="none" 
	d="
M343.266724,284.931335 
	C343.007324,285.001221 342.516174,284.991058 342.270966,284.982483 
	C342.665924,284.464325 343.306061,283.954742 343.946198,283.445129 
	C343.806183,283.917236 343.666138,284.389313 343.266724,284.931335 
z"/>
<path fill="#D80F1F" opacity="1.000000" stroke="none" 
	d="
M351.360413,279.010406 
	C351.361420,278.926147 351.633698,279.015167 351.633698,279.015167 
	C351.633698,279.015167 351.359375,279.094666 351.360413,279.010406 
z"/>
<path fill="#F00B1D" opacity="1.000000" stroke="none" 
	d="
M223.000000,285.000000 
	C222.615128,286.335785 222.653244,288.331085 221.773529,288.895264 
	C217.544586,291.607330 213.067825,293.932953 208.642563,296.416260 
	C212.087616,301.372894 210.556961,304.928040 205.164291,306.099091 
	C200.880524,307.029297 196.694366,308.409119 192.230652,309.797394 
	C189.882187,309.285889 187.767914,308.566315 185.319427,307.878601 
	C184.836929,307.658203 184.651611,307.436981 184.262268,306.892212 
	C184.095352,306.537628 184.115143,306.081299 184.309784,305.873688 
	C184.651855,305.127167 184.799301,304.588226 184.979630,304.018066 
	C185.012527,303.986847 185.078278,303.924286 185.078278,303.924316 
	C186.278809,304.296265 187.479340,304.668213 189.625504,305.333160 
	C188.657349,303.059937 188.071259,301.683777 187.354431,300.000641 
	C188.482483,299.317841 189.549133,298.672180 190.995270,297.796844 
	C185.632370,291.479187 194.366821,287.198578 192.966034,280.141022 
	C191.390915,272.205200 199.113663,266.305389 206.755249,262.249329 
	C207.665573,259.945679 208.331131,257.892548 209.183014,255.171356 
	C210.663239,252.166336 205.486450,248.426697 211.382660,246.997330 
	C212.288986,246.963974 212.807785,246.936630 213.630798,247.011780 
	C215.000641,247.799622 216.066254,248.484955 217.276825,249.177200 
	C217.634796,249.287781 217.701767,249.451263 217.411743,249.765045 
	C217.200775,249.855530 216.786316,250.056396 216.597931,250.278687 
	C216.961655,251.622086 217.513763,252.743195 218.115036,254.145859 
	C218.213211,254.611542 218.262222,254.795654 218.102219,255.168518 
	C219.625885,258.188354 221.358597,261.019440 223.082733,264.205750 
	C223.739273,265.353210 224.404358,266.145447 225.035339,266.968811 
	C225.001221,267.000000 225.071609,266.937469 225.052963,267.290771 
	C225.261765,268.782990 225.489227,269.921906 225.716675,271.060822 
	C226.002853,271.046234 226.289032,271.031616 226.575211,271.016998 
	C226.735611,270.292358 226.896027,269.567688 227.421509,268.895874 
	C228.583420,270.280579 229.380249,271.612396 230.177078,272.944244 
	C228.625793,273.107697 227.074509,273.271118 225.309357,273.457092 
	C225.860565,277.976715 236.418747,277.968994 229.511032,285.006561 
	C228.516541,283.659302 227.696594,282.548492 226.616257,281.084930 
	C225.539963,282.423706 224.593933,283.600494 223.318695,284.523926 
	C222.506531,283.260315 222.023575,282.250092 221.540604,281.239838 
	C221.040115,281.633575 220.539627,282.027344 220.039139,282.421112 
	C221.026093,283.280731 222.013046,284.140350 223.000000,285.000000 
M219.123871,272.618744 
	C219.942154,272.195282 220.760437,271.771790 221.578720,271.348328 
	C221.258438,270.972290 220.938156,270.596252 220.617874,270.220245 
	C219.988342,270.892059 219.358826,271.563904 219.123871,272.618744 
z"/>
<path fill="#C90E1D" opacity="1.000000" stroke="none" 
	d="
M184.115143,306.081299 
	C184.115143,306.081299 184.095352,306.537628 184.084671,306.765656 
	C183.394257,306.212921 182.714523,305.432190 182.015503,304.304871 
	C181.996185,303.958282 182.484253,303.993591 182.739807,304.007629 
	C182.995346,304.021637 183.025101,304.023743 183.118896,304.299500 
	C183.513504,305.077301 183.814331,305.579285 184.115143,306.081299 
z"/>
<path fill="#FAF9F9" opacity="1.000000" stroke="none" 
	d="
M217.622711,249.674576 
	C217.701767,249.451263 217.634796,249.287781 217.161041,248.838623 
	C215.694275,246.834946 214.488266,245.176743 213.229340,243.147980 
	C206.046417,224.920334 215.985352,210.439056 235.002563,210.976212 
	C235.002563,210.976212 234.996765,210.998581 235.272583,211.198654 
	C240.622360,215.727524 245.696350,220.056335 250.770325,224.385132 
	C253.018631,226.979431 255.266953,229.573730 257.620422,232.289368 
	C264.188690,225.795776 270.383118,219.671783 277.153625,213.261429 
	C286.828186,208.359375 291.633942,209.400330 300.961090,218.007187 
	C300.888092,218.364853 300.985260,218.667953 301.518982,219.269073 
	C301.871155,219.773193 301.956970,219.924744 302.042816,220.076294 
	C303.107910,222.031662 304.173035,223.987045 305.569580,226.237045 
	C305.901031,226.531677 305.858032,226.904984 305.897156,226.930359 
	C305.936279,226.955734 305.904846,226.867935 305.644745,226.958069 
	C305.574677,227.408752 305.764709,227.769318 305.905151,228.522034 
	C305.912872,229.674927 305.970123,230.435654 305.943909,231.589935 
	C306.093628,243.387756 298.693359,250.298248 291.098755,257.111694 
	C282.120880,265.166107 273.171173,273.251892 264.054413,281.568604 
	C264.051270,281.932465 264.202911,282.051788 264.307404,282.178131 
	C264.260284,282.185181 264.164978,282.184967 263.879028,282.037384 
	C260.765442,285.935944 257.135651,286.207367 252.692612,283.985596 
	C250.612518,281.799377 248.848480,279.766632 246.949524,277.435547 
	C245.504425,275.716400 244.333694,274.126862 242.857468,272.907043 
	C238.703278,269.474274 234.423370,266.193695 230.065933,262.527161 
	C227.389771,259.684723 224.840714,257.168243 222.250885,254.732544 
	C222.210114,254.813324 222.341080,254.688416 222.207016,254.383698 
	C220.589539,252.610840 219.106125,251.142700 217.622711,249.674576 
z"/>
<path fill="#F00B1D" opacity="1.000000" stroke="none" 
	d="
M234.856995,210.617554 
	C215.985352,210.439056 206.046417,224.920334 213.094696,243.518341 
	C212.949417,244.515305 212.885880,244.771317 212.520111,245.020844 
	C211.813919,245.008011 211.409943,245.001633 211.003052,244.997467 
	C211.000107,244.999664 211.004700,244.994644 211.004700,244.994644 
	C210.335785,240.639633 209.213409,236.297470 209.089401,231.927002 
	C208.803329,221.846176 214.454956,213.207123 223.954941,209.989944 
	C227.144302,208.909866 231.103882,210.104156 234.856995,210.617554 
z"/>
<path fill="#F80718" opacity="1.000000" stroke="none" 
	d="
M301.047424,217.930893 
	C291.633942,209.400330 286.828186,208.359375 277.365723,213.004883 
	C275.338226,212.011810 273.674622,210.988953 272.048981,209.989410 
	C278.731354,206.547363 278.731354,206.547363 280.382416,200.135025 
	C284.740845,210.510773 295.405273,209.534042 302.525635,215.189758 
	C302.515930,215.995667 302.270386,216.488998 302.024811,216.982330 
	C302.024811,216.982330 301.998779,217.003952 301.842682,217.095779 
	C301.496094,217.310440 301.367889,217.480255 301.302002,217.697021 
	C301.302002,217.697021 301.133789,217.854599 301.047424,217.930893 
z"/>
<path fill="#F80718" opacity="1.000000" stroke="none" 
	d="
M210.995117,247.003342 
	C205.486450,248.426697 210.663239,252.166336 209.182098,254.753357 
	C205.244232,254.519852 203.164429,253.256989 204.968735,248.826706 
	C206.434784,245.226974 204.594406,243.420883 199.872269,243.093094 
	C203.713257,240.485519 203.713257,240.485519 210.669098,244.902649 
	C211.004700,244.994644 211.000107,244.999664 211.000626,245.332184 
	C210.999130,246.110916 210.997131,246.557129 210.995117,247.003342 
z"/>
<path fill="#D80F1F" opacity="1.000000" stroke="none" 
	d="
M250.965973,224.126617 
	C245.696350,220.056335 240.622360,215.727524 235.279663,211.191238 
	C236.583862,210.690796 238.156784,210.397858 238.590363,210.317108 
	C242.036621,213.038925 245.181931,215.247757 247.977402,217.834641 
	C249.641937,219.374954 254.040405,219.823288 250.965973,224.126617 
z"/>
<path fill="#E70A1C" opacity="1.000000" stroke="none" 
	d="
M174.237915,256.981659 
	C173.995224,245.301025 174.000320,233.626465 174.011139,221.485626 
	C174.342850,222.931030 174.932175,224.840210 174.950531,226.754852 
	C175.044174,236.521469 174.990265,246.289505 174.984695,256.524841 
	C174.981384,256.992676 174.485687,256.987732 174.237915,256.981659 
z"/>
<path fill="#F80718" opacity="1.000000" stroke="none" 
	d="
M250.088562,164.393463 
	C252.702316,164.034637 255.405411,164.040375 258.558960,164.070862 
	C257.092896,167.945938 253.701828,168.200302 250.088562,164.393463 
z"/>
<path fill="#F80718" opacity="1.000000" stroke="none" 
	d="
M238.128677,164.386780 
	C240.701797,164.038788 243.401138,164.017456 246.550430,164.005310 
	C244.271683,166.580566 241.349457,166.725159 238.128677,164.386780 
z"/>
<path fill="#F80718" opacity="1.000000" stroke="none" 
	d="
M271.866882,192.419617 
	C272.186279,193.062592 272.250916,193.624771 272.315552,194.186951 
	C271.781219,194.015060 271.246857,193.843155 270.712524,193.671249 
	C271.012390,193.227097 271.312256,192.782944 271.866882,192.419617 
z"/>
<path fill="#F80718" opacity="1.000000" stroke="none" 
	d="
M276.004944,193.578949 
	C275.589539,193.145676 275.401672,192.614426 275.213837,192.083191 
	C275.605438,192.014618 275.997040,191.946060 276.388641,191.877502 
	C276.336609,192.411972 276.284546,192.946472 276.004944,193.578949 
z"/>
<path fill="#F20919" opacity="1.000000" stroke="none" 
	d="
M302.322510,216.975525 
	C302.270386,216.488998 302.515930,215.995667 302.879852,215.253189 
	C303.165710,215.003403 303.333191,215.002762 303.751892,215.000824 
	C303.542145,215.655930 303.081207,216.312332 302.322510,216.975525 
z"/>
<path fill="#F80718" opacity="1.000000" stroke="none" 
	d="
M187.000305,245.000305 
	C186.668915,245.439728 186.337204,245.878830 186.005493,246.317932 
	C185.896210,246.219055 185.786926,246.120193 185.677643,246.021301 
	C185.961075,245.716248 186.244507,245.411194 186.763672,245.052765 
	C186.999390,244.999390 187.000000,245.000000 187.000305,245.000305 
z"/>
<path fill="#F80718" opacity="1.000000" stroke="none" 
	d="
M227.189301,164.214905 
	C227.456406,164.044250 227.891312,164.035263 228.651886,164.040771 
	C228.437393,164.162369 227.897247,164.269470 227.189301,164.214905 
z"/>
<path fill="#F80718" opacity="1.000000" stroke="none" 
	d="
M231.123383,164.159424 
	C231.018906,164.057541 231.500504,164.041107 231.740891,164.049561 
	C231.981277,164.057999 231.637207,164.310089 231.637207,164.310089 
	C231.637207,164.310089 231.227844,164.261292 231.123383,164.159424 
z"/>
<path fill="#F20919" opacity="1.000000" stroke="none" 
	d="
M337.095398,192.865234 
	C337.830139,193.648239 338.552856,194.841858 339.258301,196.391663 
	C338.521851,195.590515 337.802612,194.433182 337.095398,192.865234 
z"/>
<path fill="#F20919" opacity="1.000000" stroke="none" 
	d="
M302.236023,219.928497 
	C301.956970,219.924744 301.871155,219.773193 301.748474,219.362976 
	C301.935547,219.090332 302.159515,219.076385 302.720581,219.053040 
	C302.885162,219.320877 302.675690,219.566574 302.236023,219.928497 
z"/>
<path fill="#F20919" opacity="1.000000" stroke="none" 
	d="
M301.446350,217.624374 
	C301.367889,217.480255 301.496094,217.310440 301.830139,217.107147 
	C301.886902,217.231552 301.759247,217.406570 301.446350,217.624374 
z"/>
<path fill="#F00B1D" opacity="1.000000" stroke="none" 
	d="
M182.984436,304.011658 
	C182.999374,303.244293 183.025208,302.486908 183.047012,301.349792 
	C183.694336,301.736389 184.345673,302.502655 185.037659,303.596619 
	C185.078278,303.924286 185.012527,303.986847 184.660370,303.985229 
	C183.880493,303.996979 183.452805,304.010376 183.025101,304.023743 
	C183.025101,304.023743 182.995346,304.021637 182.984436,304.011658 
z"/>
<path fill="#D80F1F" opacity="1.000000" stroke="none" 
	d="
M319.892487,240.683746 
	C319.058167,240.540100 318.133392,240.079514 317.126373,239.296722 
	C317.963409,239.438614 318.882751,239.902710 319.892487,240.683746 
z"/>
<path fill="#E70A1C" opacity="1.000000" stroke="none" 
	d="
M312.893860,226.692276 
	C311.014404,225.257645 309.053436,223.490433 307.024323,221.381714 
	C308.908234,222.813354 310.860260,224.586533 312.893860,226.692276 
z"/>
<path fill="#B60717" opacity="1.000000" stroke="none" 
	d="
M223.091309,263.850525 
	C221.358597,261.019440 219.625885,258.188354 218.499542,255.157135 
	C220.184296,254.867493 221.262695,254.777954 222.341080,254.688416 
	C222.341080,254.688416 222.210114,254.813324 222.234650,255.108032 
	C223.059204,259.871704 225.826675,262.569061 230.148529,264.265564 
	C230.866287,265.354401 231.436096,266.177704 232.147812,267.197327 
	C232.505920,267.639404 232.759003,267.838287 233.119736,268.199738 
	C233.190536,268.409210 233.253159,268.846954 233.024597,269.080170 
	C234.693710,273.301056 236.972092,276.827118 242.054474,276.963409 
	C242.052460,276.975922 242.061111,276.939514 242.061157,277.323059 
	C243.258972,279.734680 244.014694,282.319855 245.737213,283.686432 
	C250.945663,287.818634 256.529205,291.478058 261.600220,295.062744 
	C265.302429,293.323090 268.863892,292.077850 271.958740,290.101837 
	C277.558624,286.526367 282.782562,282.364105 288.361786,278.753357 
	C290.884613,277.120605 292.056793,275.678436 290.276794,272.784485 
	C294.125122,269.112366 297.706909,265.664917 301.286255,262.214966 
	C307.889709,255.850189 311.518433,248.102463 312.100922,238.939728 
	C315.398773,242.913315 315.568146,251.453934 312.845734,255.270737 
	C309.906982,259.390900 307.390564,263.812317 304.689911,268.102295 
	C304.514313,268.381287 304.405701,268.789856 304.153290,268.920471 
	C295.899109,273.191620 292.390228,281.889008 286.177765,287.976898 
	C282.507660,291.573395 277.228485,293.834167 272.303009,295.739044 
	C268.838470,297.078949 267.214752,298.469055 268.854492,302.590973 
	C268.413239,302.826599 267.971985,303.062195 267.530731,303.297821 
	C263.843536,301.283752 260.178131,299.227997 256.455872,297.280884 
	C255.328354,296.691040 254.043594,296.401825 252.458527,295.961304 
	C249.645645,293.317169 247.207947,290.683990 244.763916,288.056732 
	C240.118698,283.063263 235.469894,278.073151 230.499817,273.012939 
	C229.380249,271.612396 228.583420,270.280579 227.339264,268.612793 
	C226.285141,267.830414 225.678375,267.383942 225.071609,266.937469 
	C225.071609,266.937469 225.001221,267.000000 225.019028,266.632355 
	C224.388336,265.459991 223.739822,264.655243 223.091309,263.850525 
z"/>
<path fill="#C90E1D" opacity="1.000000" stroke="none" 
	d="
M276.491638,305.488037 
	C276.513916,305.479095 276.469330,305.496979 276.491638,305.488037 
z"/>
<path fill="#970815" opacity="1.000000" stroke="none" 
	d="
M312.088013,238.615967 
	C311.518433,248.102463 307.889709,255.850189 301.286255,262.214966 
	C297.706909,265.664917 294.125122,269.112366 289.921753,272.805115 
	C284.998016,276.218842 281.015869,280.024323 276.309082,282.384979 
	C271.275024,284.909760 267.682404,291.202087 260.609680,289.018921 
	C257.593750,288.087952 254.049713,288.098755 253.008667,284.139038 
	C257.135651,286.207367 260.765442,285.935944 263.834320,282.293610 
	C264.178833,282.974243 264.282104,283.251038 264.560455,283.997070 
	C264.454895,283.061096 264.404724,282.616089 264.354523,282.171082 
	C264.202911,282.051788 264.051270,281.932465 264.442139,281.923004 
	C267.606415,281.903290 271.057098,282.803558 272.711487,281.472015 
	C281.502869,274.396423 289.668640,266.548065 298.390564,259.380402 
	C306.868378,252.413406 306.665649,242.624008 307.767334,233.196472 
	C307.836395,232.605621 306.636780,231.866501 306.027374,231.196365 
	C305.970123,230.435654 305.912872,229.674927 305.908722,228.205841 
	C305.942841,227.287613 305.923859,227.077774 305.904846,226.867935 
	C305.904846,226.867935 305.936279,226.955734 306.190918,226.951202 
	C306.641785,226.950928 306.838043,226.955170 307.034332,226.959427 
	C307.551147,227.514130 308.067932,228.068832 308.852295,229.142868 
	C310.067047,230.790527 311.014282,231.918854 311.961548,233.047165 
	C311.974731,233.480270 311.987946,233.913361 311.835999,234.842133 
	C311.809235,235.890076 311.947601,236.442352 312.085938,236.994614 
	C312.082336,237.427155 312.078705,237.859680 312.088013,238.615967 
z"/>
<path fill="#B60717" opacity="1.000000" stroke="none" 
	d="
M311.918030,232.704910 
	C311.014282,231.918854 310.067047,230.790527 309.071960,229.323944 
	C309.974274,230.111359 310.924408,231.237000 311.918030,232.704910 
z"/>
<path fill="#B60717" opacity="1.000000" stroke="none" 
	d="
M312.246155,236.819382 
	C311.947601,236.442352 311.809235,235.890076 311.848328,235.166901 
	C312.152679,235.545364 312.279541,236.094757 312.246155,236.819382 
z"/>
<path fill="#B60717" opacity="1.000000" stroke="none" 
	d="
M307.003601,226.761780 
	C306.838043,226.955170 306.641785,226.950928 306.151794,226.925842 
	C305.858032,226.904984 305.901031,226.531677 305.895447,226.343582 
	C306.250854,226.291702 306.611877,226.427902 307.003601,226.761780 
z"/>
<path fill="#970815" opacity="1.000000" stroke="none" 
	d="
M222.207016,254.383698 
	C221.262695,254.777954 220.184296,254.867493 218.708588,254.968399 
	C218.262222,254.795654 218.213211,254.611542 218.095520,253.809723 
	C217.613358,252.146805 217.199844,251.101608 216.786316,250.056396 
	C216.786316,250.056396 217.200775,249.855530 217.411743,249.765045 
	C219.106125,251.142700 220.589539,252.610840 222.207016,254.383698 
z"/>
<path fill="#E70C1E" opacity="1.000000" stroke="none" 
	d="
M222.994751,284.635284 
	C222.013046,284.140350 221.026093,283.280731 220.039139,282.421112 
	C220.539627,282.027344 221.040115,281.633575 221.540604,281.239838 
	C222.023575,282.250092 222.506531,283.260315 222.994751,284.635284 
z"/>
<path fill="#E70C1E" opacity="1.000000" stroke="none" 
	d="
M218.926575,272.427246 
	C219.358826,271.563904 219.988342,270.892059 220.617874,270.220245 
	C220.938156,270.596252 221.258438,270.972290 221.578720,271.348328 
	C220.760437,271.771790 219.942154,272.195282 218.926575,272.427246 
z"/>
<path fill="#970815" opacity="1.000000" stroke="none" 
	d="
M212.822342,245.027313 
	C212.885880,244.771317 212.949417,244.515305 213.147614,243.888916 
	C214.488266,245.176743 215.694275,246.834946 217.016083,248.831726 
	C216.066254,248.484955 215.000641,247.799622 213.562927,246.693420 
	C213.068008,245.857483 212.945175,245.442398 212.822342,245.027313 
z"/>
<path fill="#E70C1E" opacity="1.000000" stroke="none" 
	d="
M225.052963,267.290771 
	C225.678375,267.383942 226.285141,267.830414 226.974167,268.559967 
	C226.896027,269.567688 226.735611,270.292358 226.575211,271.016998 
	C226.289032,271.031616 226.002853,271.046234 225.716675,271.060822 
	C225.489227,269.921906 225.261765,268.782990 225.052963,267.290771 
z"/>
<path fill="#E70C1E" opacity="1.000000" stroke="none" 
	d="
M223.082733,264.205750 
	C223.739822,264.655243 224.388336,265.459991 225.053146,266.601196 
	C224.404358,266.145447 223.739273,265.353210 223.082733,264.205750 
z"/>
<path fill="#B60717" opacity="1.000000" stroke="none" 
	d="
M216.597931,250.278687 
	C217.199844,251.101608 217.613358,252.146805 218.046387,253.528168 
	C217.513763,252.743195 216.961655,251.622086 216.597931,250.278687 
z"/>
<path fill="#F90513" opacity="1.000000" stroke="none" 
	d="
M212.520111,245.020844 
	C212.945175,245.442398 213.068008,245.857483 213.258698,246.590942 
	C212.807785,246.936630 212.288986,246.963974 211.382660,246.997330 
	C210.997131,246.557129 210.999130,246.110916 211.003571,245.329987 
	C211.409943,245.001633 211.813919,245.008011 212.520111,245.020844 
z"/>
<path fill="#F91F33" opacity="1.000000" stroke="none" 
	d="
M183.118896,304.299530 
	C183.452805,304.010376 183.880493,303.996979 184.627472,304.016479 
	C184.799301,304.588226 184.651855,305.127167 184.309784,305.873688 
	C183.814331,305.579285 183.513504,305.077301 183.118896,304.299530 
z"/>
<path fill="#680E13" opacity="1.000000" stroke="none" 
	d="
M305.943909,231.589935 
	C306.636780,231.866501 307.836395,232.605621 307.767334,233.196472 
	C306.665649,242.624008 306.868378,252.413406 298.390564,259.380402 
	C289.668640,266.548065 281.502869,274.396423 272.711487,281.472015 
	C271.057098,282.803558 267.606415,281.903290 264.596924,281.678467 
	C273.171173,273.251892 282.120880,265.166107 291.098755,257.111694 
	C298.693359,250.298248 306.093628,243.387756 305.943909,231.589935 
z"/>
<path fill="#A50817" opacity="1.000000" stroke="none" 
	d="
M252.692612,283.985596 
	C254.049713,288.098755 257.593750,288.087952 260.609680,289.018921 
	C267.682404,291.202087 271.275024,284.909760 276.309082,282.384979 
	C281.015869,280.024323 284.998016,276.218842 289.654114,273.028625 
	C292.056793,275.678436 290.884613,277.120605 288.361786,278.753357 
	C282.782562,282.364105 277.558624,286.526367 271.958740,290.101837 
	C268.863892,292.077850 265.302429,293.323090 261.600220,295.062744 
	C256.529205,291.478058 250.945663,287.818634 245.737213,283.686432 
	C244.014694,282.319855 243.258972,279.734680 242.390594,277.336243 
	C244.174805,277.221893 245.629623,277.477905 247.084442,277.733887 
	C248.848480,279.766632 250.612518,281.799377 252.692612,283.985596 
z"/>
<path fill="#680E13" opacity="1.000000" stroke="none" 
	d="
M246.949524,277.435547 
	C245.629623,277.477905 244.174805,277.221893 242.390549,276.952698 
	C242.061111,276.939514 242.052460,276.975922 242.038010,276.599884 
	C239.100098,273.764893 236.176620,271.305908 233.253159,268.846954 
	C233.253159,268.846954 233.190536,268.409210 233.000793,267.982544 
	C232.596512,267.292786 232.328140,267.107849 232.005920,267.001007 
	C231.436096,266.177704 230.866287,265.354401 230.194702,263.978516 
	C230.126312,263.234955 230.159668,263.044037 230.193039,262.853088 
	C234.423370,266.193695 238.703278,269.474274 242.857468,272.907043 
	C244.333694,274.126862 245.504425,275.716400 246.949524,277.435547 
z"/>
<path fill="#970815" opacity="1.000000" stroke="none" 
	d="
M230.065933,262.527161 
	C230.159668,263.044037 230.126312,263.234955 230.046783,263.712952 
	C225.826675,262.569061 223.059204,259.871704 222.275406,255.027237 
	C224.840714,257.168243 227.389771,259.684723 230.065933,262.527161 
z"/>
<path fill="#680E13" opacity="1.000000" stroke="none" 
	d="
M264.307404,282.178131 
	C264.404724,282.616089 264.454895,283.061096 264.560455,283.997070 
	C264.282104,283.251038 264.178833,282.974243 264.120270,282.441193 
	C264.164978,282.184967 264.260284,282.185181 264.307404,282.178131 
z"/>
<path fill="#B60717" opacity="1.000000" stroke="none" 
	d="
M305.644745,226.958069 
	C305.923859,227.077774 305.942841,227.287613 305.958313,227.813660 
	C305.764709,227.769318 305.574677,227.408752 305.644745,226.958069 
z"/>
<path fill="#A50817" opacity="1.000000" stroke="none" 
	d="
M233.024597,269.080170 
	C236.176620,271.305908 239.100098,273.764893 242.040024,276.587372 
	C236.972092,276.827118 234.693710,273.301056 233.024597,269.080170 
z"/>
<path fill="#A50817" opacity="1.000000" stroke="none" 
	d="
M232.147812,267.197327 
	C232.328140,267.107849 232.596512,267.292786 232.929993,267.773071 
	C232.759003,267.838287 232.505920,267.639404 232.147812,267.197327 
z"/>
</svg>